Coordinates
version=1
nRows=14
nColumns=24
inDegrees=yes

Units are S.I. units (second, meters, Newtons, ...)
Angles are in degrees.

endheader
time	pelvis_tilt	pelvis_list	pelvis_rotation	pelvis_tx	pelvis_ty	pelvis_tz	hip_flexion_r	hip_adduction_r	hip_rotation_r	knee_angle_r	ankle_angle_r	subtalar_angle_r	mtp_angle_r	hip_flexion_l	hip_adduction_l	hip_rotation_l	knee_angle_l	ankle_angle_l	subtalar_angle_l	mtp_angle_l	lumbar_extension	lumbar_bending	lumbar_rotation
      1.01233333	      0.81522757	     -2.28815555	     -6.40198385	     -0.18357936	      0.88736847	      0.33052651	    -17.61564965	      6.54201727	      5.51554384	    -11.43730169	     19.97296300	     11.62522079	      7.72010483	     27.19843825	     -4.08414347	    -12.31922087	     -6.85629221	      5.66712617	      0.25990669	     -0.98700660	     -7.17334246	      3.10712827	     11.70035623
      1.01650000	      0.79612973	     -2.20167672	     -6.45186567	     -0.17773706	      0.88641291	      0.33046887	    -17.71772508	      6.37255294	      5.30086683	    -11.99849552	     20.02693802	     11.97877550	      8.30553852	     27.25570662	     -3.92502990	    -12.16577084	     -7.27786320	      5.65728448	      0.32688378	     -0.80586326	     -7.14227654	      2.88534491	     11.70315020
      1.02066667	      0.84108309	     -2.13194263	     -6.46131424	     -0.17184232	      0.88558310	      0.33037319	    -17.92515480	      6.22121919	      5.08030017	    -12.47724629	     19.94096506	     12.33723184	     10.66001296	     27.25281748	     -3.76212192	    -11.96119491	     -7.78401610	      5.64555950	      0.25851217	     -0.00359069	     -7.20534459	      2.69173264	     11.72774295
      1.02483333	      0.73956539	     -2.07529735	     -6.48923513	     -0.16596135	      0.88458897	      0.33035250	    -17.93298188	      6.11601293	      4.97244887	    -13.05314226	     19.85748447	     12.47058970	     10.75679332	     27.42438279	     -3.64591401	    -11.76050967	     -8.38326923	      5.60287074	      0.23126979	      0.03965747	     -7.05556686	      2.51107274	     11.68707108
      1.02900000	      0.71408370	     -1.98165681	     -6.51240913	     -0.16000606	      0.88375418	      0.33027970	    -17.99281941	      5.94560493	      4.73686238	    -13.68320073	     19.80048077	     12.83696784	     10.96378892	     27.48706878	     -3.47709620	    -11.59116976	     -8.97985520	      5.48103947	      0.12194093	      0.12368803	     -7.01044986	      2.29066550	     11.64594532
      1.03316667	      0.67027927	     -1.87684325	     -6.52355700	     -0.15398402	      0.88295040	      0.33022344	    -18.02740032	      5.77463623	      4.52158054	    -14.32245630	     19.63074649	     13.11344654	     11.18827758	     27.54608395	     -3.28944189	    -11.35720656	     -9.57115818	      5.34153704	     -0.04653911	      0.21249139	     -6.91911550	      2.03234165	     11.61327613
      1.03733333	      0.62864921	     -1.76714856	     -6.53718028	     -0.14794558	      0.88220590	      0.33015483	    -18.03584927	      5.59400410	      4.30112930	    -15.01476416	     19.44046067	     13.40265391	     11.48314752	     27.59645056	     -3.09739435	    -11.13341270	    -10.18468817	      5.11983974	     -0.30261215	      0.32138336	     -6.83991798	      1.77888641	     11.55897603
      1.04150000	      0.61674290	     -1.66197969	     -6.54250819	     -0.14186764	      0.88157185	      0.33009128	    -18.07595702	      5.42111035	      4.11823421	    -15.69345097	     19.07850350	     13.51889775	     15.61459416	     27.59626816	     -2.89878582	    -10.86776388	    -10.78599200	      4.79593921	     -0.75892979	      1.83805193	     -6.80223472	      1.53689819	     11.51523820
      1.04566667	      0.55838497	     -1.53843518	     -6.54231048	     -0.13572991	      0.88091467	      0.33003078	    -18.02565364	      5.23198158	      3.88702116	    -16.46042902	     18.76847912	     13.78587099	     15.68239708	     27.66429397	     -2.70062526	    -10.68802016	    -11.45747536	      4.53330891	     -0.96418787	      1.86664396	     -6.68279809	      1.25449258	     11.44260056
      1.04983333	      0.49455333	     -1.41411918	     -6.54180856	     -0.12958591	      0.88031131	      0.32995676	    -17.93473551	      5.04120036	      3.66174489	    -17.28859118	     18.41479434	     14.03292236	     15.81975232	     27.72266008	     -2.49186371	    -10.44480268	    -12.11103800	      4.20500419	     -1.37031681	      1.90880701	     -6.55536084	      0.97758854	     11.36666338
      1.05400000	      0.50897301	     -1.26050941	     -6.52547016	     -0.12339859	      0.87988421	      0.32981407	    -17.90171657	      4.80057887	      3.35949088	    -18.15721486	     18.05757360	     14.33599418	     16.52424637	     27.65837410	     -2.21661942	    -10.10511515	    -12.68851844	      3.78576378	     -2.07747892	      2.10561463	     -6.54072612	      0.66255964	     11.27034335
      1.05816667	      0.37525908	     -1.15293697	     -6.51387653	     -0.11721183	      0.87930094	      0.32976605	    -17.67943961	      4.64758021	      3.19977386	    -19.08260480	     17.53053580	     14.46231695	     16.72743934	     27.81456602	     -2.04815212	     -9.90880184	    -13.41774665	      3.43802162	     -2.38121254	      2.15372757	     -6.31840696	      0.40906405	     11.19373516
      1.06233333	      0.32955861	     -1.01412416	     -6.49864170	     -0.11100916	      0.87891138	      0.32963670	    -17.50860703	      4.43231104	      2.94667799	    -20.06559358	     16.93862274	     14.59851722	     21.30386315	     27.83335551	     -1.80665697	     -9.60356053	    -14.05191499	      2.95946714	     -3.12585436	      3.19574777	     -6.22269073	      0.12464672	     11.08683145
      1.06650000	      0.22779152	     -0.89076897	     -6.46170055	     -0.10476526	      0.87848526	      0.32951787	    -17.24908582	      4.24733548	      2.69659641	    -21.10594102	     16.30724562	     14.82055596	     21.37331625	     27.94940169	     -1.60504962	     -9.36818776	    -14.78535604	      2.65674355	     -3.49351872	      3.20885697	     -6.04416979	     -0.16161742	     10.99498363
